<svg width="304" height="92" viewBox="0 0 304 92" fill="none" xmlns="http://www.w3.org/2000/svg">
<g clip-path="url(#clip0)">
<path fill-rule="evenodd" clip-rule="evenodd" d="M31.6 8.6L20.2 45.6C35.7 45.6 51.2 45.6 66.7 45.6L55.4 8.6C47.5 8.6 39.6 8.6 31.6 8.6ZM8.8 82.5C31.7 82.5 54.5 82.5 77.4 82.5L68.8 54.8C51.7 54.8 34.5 54.8 17.4 54.8L8.8 82.5ZM0 0H86.4V91.2H0V0Z" fill="#E73938"/>
<path fill-rule="evenodd" clip-rule="evenodd" d="M105.6 82.7H117.7L120.6 72.6H135.6L138.6 82.7H150.7L134.4 34.7H122L105.6 82.7ZM123.4 63.3L126.2 54C126.8 52 127.4 49.2 128.1 45.7H128.2L130.1 54L132.8 63.3H123.4Z" fill="#1D1D1B"/>
<path fill-rule="evenodd" clip-rule="evenodd" d="M156.8 82.7H188.2V72.7H168.6V34.7H156.8V82.7Z" fill="#1D1D1B"/>
<path d="M207.1 34.7H195.3V82.7H207.1V34.7Z" fill="#1D1D1B"/>
<path fill-rule="evenodd" clip-rule="evenodd" d="M213.1 82.7H224.9V66.6H230.4L238.9 82.8H252L242.7 66C241.9 64.7 241.3 63.7 240.9 63.1V63C243.2 61.8 245 60 246.2 57.6C247.5 55.2 248.1 52.6 248.1 49.9C248.1 46.5 247.3 43.5 245.7 41.1C244.1 38.7 242 37 239.2 35.9C237.2 35.1 234.1 34.8 229.9 34.8H213.2V82.7H213.1ZM224.9 56.5V44.8H228.9C230.8 44.8 232.3 45 233.3 45.5C235.2 46.3 236.1 48 236.1 50.6C236.1 52.5 235.6 53.9 234.5 55C233.4 56 231.9 56.5 230 56.5H224.9Z" fill="#1D1D1B"/>
<path fill-rule="evenodd" clip-rule="evenodd" d="M252.8 58.4C252.8 65.6 255.2 71.5 259.9 76.3C264.6 81.1 270.6 83.5 278 83.5C285.3 83.5 291.4 81.1 296.1 76.3C300.8 71.5 303.2 65.5 303.2 58.4C303.2 51.4 300.8 45.6 296.1 40.9C291.4 36.2 285.4 33.9 278 33.9C270.7 33.9 264.6 36.2 259.9 40.9C255.2 45.6 252.8 51.4 252.8 58.4ZM265 58.4C265 54.5 266.2 51.2 268.7 48.6C271.1 46 274.2 44.7 278 44.7C281.8 44.7 284.9 46 287.3 48.6C289.7 51.2 291 54.5 291 58.4C291 62.5 289.8 65.9 287.3 68.7C284.9 71.4 281.8 72.8 278 72.8C274.2 72.8 271.1 71.4 268.7 68.7C266.2 66 265 62.5 265 58.4Z" fill="#1D1D1B"/>
<path fill-rule="evenodd" clip-rule="evenodd" d="M121.7 19.1C122.9 20.2 124.3 20.8 126 20.8C127.3 20.8 128.3 20.5 129.2 19.9C130.1 19.3 130.5 18.4 130.5 17.2C130.5 15.8 129.8 14.9 128.4 14.5C129.5 14 130.1 13.1 130.1 11.9C130.1 10.9 129.7 10.1 129 9.6C128.3 9 127.3 8.8 126.2 8.8C124.6 8.8 123.3 9.2 122.1 10.1L122.9 11.6C123.8 10.9 124.7 10.6 125.7 10.6C126.3 10.6 126.9 10.7 127.2 11C127.6 11.3 127.8 11.7 127.8 12.2C127.8 13.3 127.1 13.9 125.6 13.9H124.4V15.5H125.8C127.4 15.5 128.2 16.1 128.2 17.3C128.2 17.9 128 18.4 127.5 18.7C127 19 126.5 19.2 125.8 19.2C124.6 19.2 123.6 18.7 122.8 17.8L121.7 19.1Z" fill="#1D1D1B"/>
<path fill-rule="evenodd" clip-rule="evenodd" d="M132.2 17.4C132.2 18.4 132.6 19.3 133.4 19.9C134.2 20.5 135.1 20.8 136.1 20.8C136.9 20.8 137.7 20.6 138.4 20.1C139.1 19.7 139.6 19.1 140 18.4L139.9 19.3V20.5H142V13.1C142 11.6 141.6 10.5 140.8 9.7C140 8.9 138.9 8.5 137.4 8.5C136.6 8.5 135.8 8.6 135 8.9C134.2 9.2 133.5 9.5 133.1 9.9L134 11.5C135.1 10.7 136.1 10.4 137.3 10.4C139 10.4 139.9 11.3 139.9 13V13.2H139.3C138.5 13.2 137.8 13.2 137.2 13.3C136.5 13.4 135.8 13.6 135 13.8C134.2 14.1 133.6 14.5 133.1 15.1C132.4 15.8 132.2 16.5 132.2 17.4ZM134.4 17.2C134.4 15.7 136 14.9 139.1 14.9H139.7V15.3C139.7 16.2 139.4 17.1 138.8 17.9C138.2 18.7 137.5 19.1 136.5 19.1C135.8 19.1 135.3 18.9 134.9 18.5C134.6 18.1 134.4 17.7 134.4 17.2Z" fill="#1D1D1B"/>
<path fill-rule="evenodd" clip-rule="evenodd" d="M145.3 20.6H150.3C151.6 20.6 152.6 20.3 153.4 19.7C154.2 19.1 154.6 18.3 154.6 17.2C154.6 16.5 154.4 16 154 15.4C153.6 14.9 153.1 14.6 152.4 14.4C152.9 14.2 153.3 13.8 153.6 13.4C153.9 12.9 154 12.4 154 11.9C154 10.9 153.7 10.2 153 9.69999C152.3 9.19999 151.4 8.89999 150.2 8.89999H145.4V20.6H145.3ZM147.5 13.8V10.4H149.6C151 10.4 151.7 10.9 151.7 12C151.7 12.6 151.5 13 151.2 13.3C150.9 13.6 150.4 13.8 149.7 13.8H147.5ZM147.5 19V15.3H149.9C150.7 15.3 151.3 15.5 151.7 15.8C152.1 16.1 152.3 16.6 152.3 17.2C152.3 17.8 152.1 18.2 151.7 18.5C151.3 18.8 150.7 19 149.9 19H147.5Z" fill="#1D1D1B"/>
<path fill-rule="evenodd" clip-rule="evenodd" d="M156.5 14.7C156.5 16.5 157.1 17.9 158.3 19.1C159.5 20.3 161 20.9 162.8 20.9C164.6 20.9 166 20.3 167.2 19.1C168.4 17.9 169 16.5 169 14.7C169 12.9 168.4 11.5 167.2 10.3C166 9.10001 164.5 8.60001 162.7 8.60001C160.9 8.60001 159.5 9.20001 158.3 10.3C157.1 11.5 156.5 13 156.5 14.7ZM158.8 14.7C158.8 13.5 159.2 12.5 160 11.7C160.8 10.9 161.7 10.5 162.8 10.5C163.9 10.5 164.8 10.9 165.6 11.7C166.4 12.5 166.8 13.5 166.8 14.7C166.8 15.9 166.4 16.9 165.6 17.7C164.8 18.5 163.9 18.9 162.8 18.9C161.7 18.9 160.7 18.5 160 17.7C159.2 16.9 158.8 15.9 158.8 14.7Z" fill="#1D1D1B"/>
<path fill-rule="evenodd" clip-rule="evenodd" d="M173.7 18.7C174.8 17 175.4 14.5 175.4 11.3V10.7H178.9V18.7H173.7ZM170 18.7V23.3H172.1V20.5H180.7V23.3H182.7V18.7H181V8.89999H173.1V11C173.1 14.5 172.5 17 171.3 18.7H170Z" fill="#1D1D1B"/>
<path fill-rule="evenodd" clip-rule="evenodd" d="M190.1 14.7C190.1 16.5 190.7 17.9 191.9 19.1C193.1 20.3 194.6 20.9 196.4 20.9C198.2 20.9 199.6 20.3 200.8 19.1C202 17.9 202.6 16.5 202.6 14.7C202.6 12.9 202 11.5 200.8 10.3C199.6 9.10001 198.1 8.60001 196.3 8.60001C194.5 8.60001 193.1 9.20001 191.9 10.3C190.7 11.5 190.1 13 190.1 14.7ZM192.4 14.7C192.4 13.5 192.8 12.5 193.6 11.7C194.4 10.9 195.3 10.5 196.4 10.5C197.5 10.5 198.4 10.9 199.2 11.7C200 12.5 200.4 13.5 200.4 14.7C200.4 15.9 200 16.9 199.2 17.7C198.4 18.5 197.5 18.9 196.4 18.9C195.3 18.9 194.3 18.5 193.6 17.7C192.8 16.9 192.4 15.9 192.4 14.7Z" fill="#1D1D1B"/>
<path fill-rule="evenodd" clip-rule="evenodd" d="M205.4 20.6H207.6V15.5H209.3L212.7 20.6H215.4L211 14.5L214.9 8.89999H212.4L209.2 13.6H207.6V8.89999H205.4V20.6Z" fill="#1D1D1B"/>
<path fill-rule="evenodd" clip-rule="evenodd" d="M216.1 14.7C216.1 16.5 216.7 17.9 217.9 19.1C219.1 20.3 220.6 20.9 222.4 20.9C224.2 20.9 225.6 20.3 226.8 19.1C228 17.9 228.6 16.5 228.6 14.7C228.6 12.9 228 11.5 226.8 10.3C225.6 9.10001 224.1 8.60001 222.3 8.60001C220.5 8.60001 219.1 9.20001 217.9 10.3C216.7 11.5 216.1 13 216.1 14.7ZM218.4 14.7C218.4 13.5 218.8 12.5 219.6 11.7C220.4 10.9 221.3 10.5 222.4 10.5C223.5 10.5 224.4 10.9 225.2 11.7C226 12.5 226.4 13.5 226.4 14.7C226.4 15.9 226 16.9 225.2 17.7C224.4 18.5 223.5 18.9 222.4 18.9C221.3 18.9 220.3 18.5 219.6 17.7C218.8 16.9 218.4 15.9 218.4 14.7Z" fill="#1D1D1B"/>
<path fill-rule="evenodd" clip-rule="evenodd" d="M231.4 20.6H233.6V15.6H239.5V20.6H241.7V8.89999H239.5V13.7H233.6V8.89999H231.4V20.6Z" fill="#1D1D1B"/>
<path fill-rule="evenodd" clip-rule="evenodd" d="M30.1 83.2C31.3 83.7 32.6 83.6 34 83.3C36.9 82.6 37.8 76.2 38.9 73.1C39.2 72.2 39.3 71.5 39.6 71C40.1 70.2 40.9 70.3 41.3 71.2C41.9 72.8 41.6 73.4 43.4 74.8C44.3 75.5 45.1 75.8 46.2 76.2C47.2 76.6 47.8 76.9 48.3 77.6C48.7 78.2 48.9 79.4 47.9 79.5C47 79.6 44.9 79.2 43.2 79.1C41.8 79 40.5 78.8 39.6 79.2C38.3 79.8 38.4 81.5 39.4 82.5C40.4 83.5 42.1 83.2 43.7 83.2C48.3 83.2 54 83.8 57.9 82.1C59.2 81.5 59.6 80.4 60 78.8C60.4 78.8 59.6 78.6 61.3 78.8C63 79 65.8 83 77.3 82.7C78.2 80.6 72.8 83.5 64.4 76.8C63.4 76 63.4 75 63 73.1C61.8 67.4 62.7 67.9 59.4 62.1C53.5 51.5 41.3 50.3 38.4 47.3C37.3 46.2 36.2 43.7 37.8 42C39.6 40.1 41.1 41 42.8 41.8C44.9 42.8 46.1 42.4 47.1 41.7C47.6 41.4 48.4 41 48.3 40.4C48 39 47.1 35.6 46.6 34.4C45.7 32 44.4 31.8 42.7 30.5L44.1 26.6C41.3 26.3 41.3 28.8 37.2 30.2C28.3 33 24.4 43.5 26.6 51.7C27.2 54.1 28.5 57.6 29.5 59.5C31.7 63.1 35.2 67.9 34.3 73.6C34.1 75 34 77.4 33.5 78.7C32.1 82.3 29.8 80 29.1 81.7C28.7 82.6 29.3 82.9 30.1 83.2Z" fill="#1D1D1B"/>
</g>
<defs>
<clipPath id="clip0">
<rect width="303.1" height="91.2" fill="white"/>
</clipPath>
</defs>
</svg>
